<svg xmlns="http://www.w3.org/2000/svg" width="144" height="69" fill="none"><path fill="#FF3535" d="m133.06 28.5-.2.15c-.4.167-.567.417-.5.75.567 3.167 1.233 6.25 2 9.25.1.433.45.617 1.05.55l.25-.1c2.7-1.533 5.017-3.667 6.95-6.4.633-.833.5-1.467-.4-1.9-2-.933-4.883-1.667-8.65-2.2l-.5-.1Zm.85 2.2a.953.953 0 0 1-.05-.3c.067-.167.2-.283.4-.35l.15-.05 2.55.45c1.767.4 2.933.733 3.5 1 .5.233.717.45.65.65l-6.5 1.65-.7-3.05Zm5.25 8.35a27.757 27.757 0 0 1-3 2.3l-.5.25-.75-.05.65 11.25c.033.933.267 2.033.7 3.3.267.667.7 1.667 1.3 3 .267.7 1.433 3.317 3.5 7.85.133.267.35.45.65.55.333.067.6-.033.8-.3.833-.967 1.25-1.9 1.25-2.8 0-2.067-.033-3.95-.1-5.65-.033-3.333-.2-5.833-.5-7.5l-4-12.2Zm3.3 22.45c.3 1 .283 1.8-.05 2.4-.167.3-.4.533-.7.7l-.2.1-.05-.2c-1.9-3.633-3.333-7.033-4.3-10.2-.2-.533-.167-.983.1-1.35l.55-.35.05-.1 4.6 9Zm-7.3-49.8c-.033-.133-.45-1.217-1.25-3.25-1.833-3.533-3.083-6.2-3.75-8a.765.765 0 0 0-.6-.4c-.267-.1-.483-.05-.65.15-.4.4-.767.933-1.1 1.6-.3.733-.45 1.35-.45 1.85 0 .567.067 2.367.2 5.4.167 3.2.4 5.65.7 7.35l3.7 10.4.8-.3h.45c1.067.1 2.283.35 3.65.75l-.95-11.65c-.033-1.233-.283-2.533-.75-3.9Zm-5.4-9.65.05.15c1.5 3.233 2.9 6.483 4.2 9.75.367 1.033.15 1.7-.65 2l-.1.05-.05-.2c-2.333-3.967-3.85-6.767-4.55-8.4-.367-.7-.317-1.467.15-2.3.233-.367.483-.683.75-.95l.2-.1Zm-14.5 27.2c-1.5.133-2.933.383-4.3.75l-1.3 4.4a53.174 53.174 0 0 0-4.2-3.15l-4.15.85.4 1.25c1.367.833 3.3 2.133 5.8 3.9-.433 1.3-1.067 2.883-1.9 4.75l2.4-.4c-.067.7-.283 1.2-.65 1.5-.267.167-.767.35-1.5.55l-2.2.45c-.467.1-.783.5-.95 1.2a4.619 4.619 0 0 0-.05 1.15l8-2.05.35-5.45c.833.767 2.017 2.167 3.55 4.2l3.6-1.15c-.3-.267-2.083-2.1-5.35-5.5 1.4-4.2 2.217-6.617 2.45-7.25Zm-32.15-7.8c-3.467 1.867-6.5 3.4-9.1 4.6-1.067.433-1.867 1-2.4 1.7-.233.233-.583.767-1.05 1.6-.167.333-.1.533.2.6l14.25 5.1c-.133-.2-.183-.367-.15-.5 0-.1.1-.183.3-.25 8.333-2.667 15.267-4.533 20.8-5.6 4.667-.833 8.133-1.367 10.4-1.6 1.6-.1 3.233-.067 4.9.1l2.25.4c.6.233.917.633.95 1.2.333 2.133.9 4.75 1.7 7.85.833 3.267 1.583 5.65 2.25 7.15-.3.433-.683.617-1.15.55-.3 0-.95-.667-1.95-2-.167-.067-.35-.1-.55-.1-15.6 5.3-34.967 9.983-58.1 14.05-25.967 4.533-43.867 5.667-53.7 3.4v.1l-5.8 2.65c.567.6 1.6 1.65 3.1 3.15 2.033 1 5.017.817 8.95-.55l.85 2c.2.733.567 1.15 1.1 1.25.467.1 1.717 0 3.75-.3 7.433-1 20.167-2.917 38.2-5.75 19.633-3.067 32.4-5.2 38.3-6.4 11.5-2.267 19.517-4.267 24.05-6 3.367-1.3 5.417-2.583 6.15-3.85.867-1.5.883-4.033.05-7.6-1.433-6.533-2.25-10.183-2.45-10.95-.567-1.433-1.433-2.417-2.6-2.95-.833-.4-1.967-.617-3.4-.65-2.467 0-4.9.1-7.3.3-3.667.4-7.3.767-10.9 1.1-3.133.333-6-.25-8.6-1.75-2.6-1.533-4.117-2.417-4.55-2.65-1.3-.633-2.383-.983-3.25-1.05-1.267-.133-3.1.417-5.5 1.65Zm2.5 8c-.167-.733.3-1.233 1.4-1.5.2-.033 1.4-.4 3.6-1.1.4-.133.6-.383.6-.75.067-.367-.05-.633-.35-.8l-4.45-2.9c1.467-.8 3-.783 4.6.05 2.133 1.1 4.067 2.25 5.8 3.45.367.267.517.55.45.85-.067.333-.25.533-.55.6l-10.45 3c-.333-.3-.55-.6-.65-.9Zm-39.8-4.8c-4.267-1.333-8.383-.583-12.35 2.25v.05l4.5 6.5c.133.2.283.267.45.2l6.95-2.15.2.9c.033.6-.067 1.133-.3 1.6-.2.4-.533.717-1 .95l-4.55 1.5 1.45 2.4 5.25-1.75c.3 1.5.133 2.4-.5 2.7l-3.3 1.4 3.35 5.5-2.05.6c-6.267 1.933-9.883 2.817-10.85 2.65-1.9-.333-4.767-2.467-8.6-6.4-3.833-4.3-6.25-6.817-7.25-7.55-1.567-1.2-3.617-1.617-6.15-1.25-2.033.3-4.85 1.217-8.45 2.75C1.543 37.933.96 39.1.86 41l6.3-1.8c.167 1.267-.067 2-.7 2.2-2.133.767-4.017 1.383-5.65 1.85-.6.333-.867 1.35-.8 3.05l2.9-.65c.167-.067.3-.033.4.1l9.95 12.45c.5-.033 1.6-.233 3.3-.6l-7.1-10.75a.564.564 0 0 1-.05-.4c.1-.133.2-.233.3-.3 1.3-.367 2.25-.567 2.85-.6 1.533-.1 2.85.383 3.95 1.45 1.133 1.1 2.5 2.133 4.1 3.1 2.433 1.4 4.717 2.2 6.85 2.4 1.067.133 1.567.383 1.5.75l-2.2.7c-.533.133-.817.583-.85 1.35.033.367.1.717.2 1.05l24-4.95c.133-.1.267-.083.4.05l2.35 2.8c.267.433.65.617 1.15.55 2.9-.233 10.383-1.633 22.45-4.2 12.033-2.667 18.5-4.267 19.4-4.8.433-.3.75-.967.95-2 .067-.633-.317-1.1-1.15-1.4-26.467-9.833-43.083-15.75-49.85-17.75Z"/></svg>