<svg xmlns="http://www.w3.org/2000/svg" width="150" height="74" fill="none"><g clip-path="url(#a)"><mask id="b" width="150" height="74" x="0" y="0" maskUnits="userSpaceOnUse" style="mask-type:luminance"><path fill="#fff" d="M150 0H0v74h150V0Z"/></mask><g mask="url(#b)"><path fill="#F10361" d="M142.6 35.8c.633-.834.5-1.467-.4-1.9-2-.934-4.883-1.667-8.65-2.2l-.5-.1-.2.15c-.4.166-.567.416-.5.75.567 3.166 1.233 6.25 2 9.25.1.433.45.616 1.05.55l.25-.1c2.7-1.534 5.017-3.667 6.95-6.4Zm-8.35-2.65.15-.05 2.55.45c1.767.4 2.933.733 3.5 1 .5.233.717.45.65.65l-6.5 1.65-.7-3.05a.953.953 0 0 1-.05-.3c.067-.167.2-.284.4-.35Zm4.85 9.05a27.77 27.77 0 0 1-3 2.3l-.5.15-.7.1.2 7.75c.067 1 1.3 4.35 3.7 10.05.133.3.317.483.55.55.3.033.583-.05.85-.25.433-.434.733-.784.9-1.05.133-.3.25-.85.35-1.65.433-3.034.65-5.834.65-8.4.067-.367-.017-.85-.25-1.45l-2.75-8.1ZM136.45 54c-.267-.534-.267-1 0-1.4l.7-.4 2.9 5.1c.667 1.3.467 2.283-.6 2.95l-.15.1-.1-.15-2.75-6.2Zm-3.6-42.2c-.133-.3-.283-.45-.45-.45-.433-.2-.733-.167-.9.1-.2.166-.517.583-.95 1.25-.3.633-.5 1.083-.6 1.35-.3 4.9-.45 7.75-.45 8.55l.05.5 2.5 6.8.65-.4 2.7.4c.633.133 1.083.283 1.35.45l-.2-8.5c-.067-.567-.25-1.284-.55-2.15-.3-1-.833-2.384-1.6-4.15-.767-1.8-1.283-3.05-1.55-3.75Zm-1.05 2.7.5-.5.15.15 2.75 6.2c.4.9.183 1.466-.65 1.7l-.15.1-2.7-5.1c-.533-1.067-.5-1.917.1-2.55Zm-16.55 17.85c-1.5.133-2.933.383-4.3.75l-1.3 4.4a53.15 53.15 0 0 0-4.2-3.15l-4.15.85.4 1.25c1.367.833 3.3 2.133 5.8 3.9-.433 1.3-1.067 2.883-1.9 4.75l2.4-.4c-.067.7-.283 1.2-.65 1.5-.267.167-.767.35-1.5.55l-2.2.45c-.467.1-.783.5-.95 1.2a4.618 4.618 0 0 0-.05 1.15l8-2.05.35-5.45c.833.767 2.017 2.167 3.55 4.2l3.6-1.15c-.3-.267-2.083-2.1-5.35-5.5 1.4-4.2 2.217-6.617 2.45-7.25Zm-32.15-7.8c-3.467 1.866-6.5 3.4-9.1 4.6-1.067.433-1.867 1-2.4 1.7-.233.233-.583.767-1.05 1.6-.167.333-.1.533.2.6L85 38.15c-.133-.2-.183-.367-.15-.5 0-.1.1-.183.3-.25 8.333-2.667 15.267-4.533 20.8-5.6 4.667-.834 8.133-1.367 10.4-1.6 1.6-.1 3.233-.067 4.9.1l2.25.4c.6.233.917.633.95 1.2.333 2.133.9 4.75 1.7 7.85.833 3.267 1.583 5.65 2.25 7.15-.3.433-.683.617-1.15.55-.3 0-.95-.667-1.95-2-.167-.067-.35-.1-.55-.1-15.6 5.3-34.967 9.983-58.1 14.05-25.967 4.533-43.867 5.667-53.7 3.4v.1l-5.8 2.65c.567.6 1.6 1.65 3.1 3.15 2.033 1 5.017.816 8.95-.55l.85 2c.2.733.567 1.15 1.1 1.25.467.1 1.717 0 3.75-.3 7.433-1 20.167-2.917 38.2-5.75 19.633-3.067 32.4-5.2 38.3-6.4 11.5-2.267 19.517-4.267 24.05-6 3.367-1.3 5.417-2.583 6.15-3.85.867-1.5.883-4.033.05-7.6-1.433-6.533-2.25-10.183-2.45-10.95-.567-1.434-1.433-2.417-2.6-2.95-.833-.4-1.967-.617-3.4-.65-2.467 0-4.9.1-7.3.3-3.667.4-7.3.767-10.9 1.1-3.133.333-6-.25-8.6-1.75-2.6-1.534-4.117-2.417-4.55-2.65-1.3-.633-2.383-.983-3.25-1.05-1.267-.133-3.1.417-5.5 1.65Zm2.5 8c-.167-.733.3-1.233 1.4-1.5.2-.034 1.4-.4 3.6-1.1.4-.133.6-.383.6-.75.067-.367-.05-.633-.35-.8l-4.45-2.9c1.467-.8 3-.784 4.6.05 2.133 1.1 4.067 2.25 5.8 3.45.367.267.517.55.45.85-.067.333-.25.533-.55.6l-10.45 3c-.333-.3-.55-.6-.65-.9Zm-39.8-4.8c-4.267-1.334-8.383-.584-12.35 2.25v.05l4.5 6.5c.133.2.283.267.45.2l6.95-2.15.2.9c.033.6-.067 1.133-.3 1.6-.2.4-.533.716-1 .95l-4.55 1.5 1.45 2.4 5.25-1.75c.3 1.5.133 2.4-.5 2.7l-3.3 1.4 3.35 5.5-2.05.6c-6.267 1.933-9.883 2.817-10.85 2.65-1.9-.333-4.767-2.467-8.6-6.4-3.833-4.3-6.25-6.817-7.25-7.55-1.567-1.2-3.617-1.617-6.15-1.25-2.033.3-4.85 1.217-8.45 2.75-1.067.433-1.65 1.6-1.75 3.5l6.3-1.8c.167 1.267-.067 2-.7 2.2-2.133.767-4.017 1.383-5.65 1.85-.6.333-.867 1.35-.8 3.05l2.9-.65c.167-.067.3-.033.4.1l9.95 12.45c.5-.033 1.6-.233 3.3-.6l-7.1-10.75a.564.564 0 0 1-.05-.4c.1-.133.2-.233.3-.3 1.3-.367 2.25-.567 2.85-.6 1.533-.1 2.85.383 3.95 1.45 1.133 1.1 2.5 2.133 4.1 3.1 2.433 1.4 4.717 2.2 6.85 2.4 1.067.133 1.567.383 1.5.75l-2.2.7c-.533.133-.817.583-.85 1.35.033.367.1.717.2 1.05l24-4.95c.133-.1.267-.083.4.05l2.35 2.8c.267.433.65.617 1.15.55 2.9-.233 10.383-1.633 22.45-4.2 12.033-2.667 18.5-4.267 19.4-4.8.433-.3.75-.967.95-2 .067-.633-.317-1.1-1.15-1.4-26.467-9.833-43.083-15.75-49.85-17.75Z"/></g></g><defs><clipPath id="a"><path fill="#fff" d="M0 0h150v74H0z"/></clipPath></defs></svg>