<svg width="153" height="153" viewBox="0 0 153 153" fill="none" xmlns="http://www.w3.org/2000/svg">
<path d="M76.5 0C34.3164 0 0 34.3164 0 76.5C0 118.684 34.3164 153 76.5 153C118.684 153 153 118.684 153 76.5C153 34.3164 118.684 0 76.5 0ZM76.5 148.065C37.0408 148.065 4.93548 115.959 4.93548 76.5C4.93548 37.0408 37.0408 4.93548 76.5 4.93548C115.959 4.93548 148.065 37.0408 148.065 76.5C148.065 115.959 115.959 148.065 76.5 148.065Z" fill="#F10361"/>
<path d="M127.427 41.6851C128.002 40.2118 128.323 38.6325 128.323 37.0013C128.323 35.0148 127.854 33.0282 126.965 31.249L124.912 27.1451H116.517C110.794 27.1451 105.266 29.5463 101.36 33.7291L72.2283 64.9435L72.248 64.9608C67.542 66.7055 64.1612 71.1968 64.1612 76.5C64.1612 76.9096 64.2427 77.2946 64.2822 77.6944L42.0478 95.7607C38.7632 89.8949 37.0161 83.2813 37.0161 76.5C37.0161 61.0519 46.1319 46.9389 60.2425 40.5499L58.209 36.0537C42.3365 43.2397 32.0806 59.1172 32.0806 76.5C32.0806 84.4165 34.1979 92.1257 38.1734 98.9095L29.4327 106.012C29.1218 106.263 28.8355 106.535 28.5517 106.811C22.8043 97.7448 19.7419 87.326 19.7419 76.5C19.7419 48.6762 39.6343 25.1413 67.0386 20.5415L66.2193 15.6726C36.4288 20.6747 14.8064 46.2553 14.8064 76.5C14.8064 89.0114 18.5352 101.037 25.5732 111.315C24.9982 112.788 24.6774 114.367 24.6774 115.999C24.6774 117.985 25.1462 119.972 26.0346 121.751L28.0878 125.855H36.483C42.2057 125.855 47.7335 123.454 51.6399 119.271L80.7741 88.0564L80.7543 88.0391C85.4578 86.2944 88.8387 81.8032 88.8387 76.5C88.8387 76.0903 88.7572 75.7054 88.7177 75.3056L110.952 57.2393C114.237 63.1051 115.984 69.7186 115.984 76.5C115.984 87.0175 111.875 96.9107 104.415 104.368L107.904 107.858C116.297 99.4722 120.919 88.3353 120.919 76.5C120.919 68.5835 118.802 60.8742 114.826 54.0904L123.567 46.9883C123.878 46.7365 124.164 46.4651 124.448 46.1887C130.196 55.2552 133.258 65.674 133.258 76.5C133.258 107.798 107.798 133.258 76.4999 133.258V138.194C110.518 138.194 138.193 110.518 138.193 76.5C138.193 63.9885 134.465 51.9632 127.427 41.6851ZM48.0296 115.902C45.0535 119.091 40.846 120.919 36.483 120.919H31.1379L30.4494 119.545C29.9016 118.449 29.6128 117.223 29.6128 115.999C29.6128 113.598 30.6814 111.354 32.5445 109.844L65.9133 82.731C67.5914 85.5689 70.3429 87.6788 73.6349 88.4685L48.0296 115.902ZM76.4999 83.9032C72.4183 83.9032 69.0967 80.5816 69.0967 76.5C69.0967 72.4183 72.4183 69.0967 76.4999 69.0967C80.5816 69.0967 83.9032 72.4183 83.9032 76.5C83.9032 80.5816 80.5816 83.9032 76.4999 83.9032ZM120.455 43.1558L87.089 70.2689C85.411 67.431 82.6594 65.3211 79.3675 64.5314L104.97 37.0975C107.946 33.9092 112.154 32.0806 116.517 32.0806H121.862L122.55 33.4552C123.098 34.5508 123.387 35.7773 123.387 37.0013C123.387 39.4024 122.319 41.6456 120.455 43.1558Z" fill="#F10361"/>
<path d="M98.7986 109.015C96.8146 110.377 94.7811 111.535 92.7551 112.453L94.7935 116.949C97.0835 115.91 99.3711 114.612 101.595 113.084L98.7986 109.015Z" fill="#F10361"/>
<path d="M76.4999 19.7419V14.8064C74.9107 14.8064 73.2302 14.8804 71.3596 15.0384L71.7693 19.9566C73.4992 19.811 75.0489 19.7419 76.4999 19.7419Z" fill="#F10361"/>
</svg>
