<svg width="31" height="31" viewBox="0 0 31 31" fill="none" xmlns="http://www.w3.org/2000/svg">
<g clip-path="url(#clip0_1_288)">
<path d="M23.0894 5.27134C23.6626 4.99937 24.0626 4.41941 24.0677 3.74285C24.0711 3.29085 23.8948 2.85602 23.5775 2.53402C23.2603 2.21201 22.8282 2.02921 22.3762 2.02583C21.9242 2.02245 21.4893 2.19876 21.1673 2.51599C20.8453 2.83321 20.6625 3.26536 20.6592 3.71736C20.654 4.40328 21.0546 4.99391 21.6355 5.26983C20.934 8.91681 19.8789 11.627 16.0236 12.1788C16.0236 12.1788 17.0218 17.3719 21.8725 17.4082C26.7231 17.4445 27.2531 12.3143 27.2531 12.3143C23.3163 12.4862 23.0209 7.53708 23.0894 5.27134Z" fill="#F19534"/>
<path d="M9.09466 5.16666C8.52551 4.88614 8.13424 4.30027 8.1393 3.62371C8.14268 3.1717 8.32548 2.73956 8.64749 2.42234C8.96949 2.10511 9.40432 1.9288 9.85632 1.93218C10.3083 1.93556 10.7405 2.11836 11.0577 2.44036C11.3749 2.76237 11.5512 3.1972 11.5479 3.6492C11.5427 4.33513 11.1333 4.9197 10.5484 5.1869C11.1953 8.84396 12.2097 11.5696 16.0563 12.179C16.0563 12.179 14.9805 17.3567 10.1298 17.3204C5.27922 17.2841 4.82833 12.1489 4.82833 12.1489C8.75978 12.3773 9.12921 7.43317 9.09466 5.16666Z" fill="#F19534"/>
<path d="M21.8068 17.4077C21.8279 17.4079 21.849 17.4104 21.87 17.4105C23.2068 17.4205 24.214 17.0371 24.972 16.4785L21.8068 17.4077Z" fill="#FFCA28"/>
<path d="M28.885 4.1558C28.1062 4.04462 27.3562 4.78116 27.2128 5.79615C27.1238 6.42994 27.2902 7.0235 27.6175 7.40756L27.0382 9.73269C27.0382 9.73269 26.1379 15.23 21.7895 16.2838C18.3135 17.1264 17.1039 10.7658 16.8143 8.80169C17.4769 8.47888 17.9385 7.80339 17.9444 7.01446C17.9526 5.90715 17.0627 5.00383 15.9554 4.99555C14.8481 4.98726 13.9448 5.87717 13.9365 6.98448C13.9306 7.7781 14.389 8.46749 15.0584 8.79558C14.8028 10.7298 13.694 16.8624 9.95319 16.1929C6.15623 15.5114 4.54432 9.0962 4.17342 7.35159C4.63273 6.98044 4.89284 6.32218 4.8045 5.61214C4.67634 4.59278 3.87649 3.85635 3.01881 3.96465C2.16113 4.07295 1.57135 4.98628 1.69953 6.0033C1.79232 6.74381 2.24208 7.33481 2.80929 7.56146L5.6487 26.085C5.6487 26.085 8.23189 28.1575 15.7817 28.214C23.3316 28.2704 25.9455 26.2368 25.9455 26.2368L29.0691 7.70873C29.5532 7.4595 29.9367 6.89347 30.0356 6.19654C30.1813 5.17922 29.6661 4.26699 28.885 4.1558Z" fill="#FFCA28"/>
<path d="M15.9107 23.5021C17.17 23.5116 18.1999 22.3023 18.2112 20.8013C18.2224 19.3002 17.2106 18.0757 15.9513 18.0663C14.692 18.0568 13.662 19.2661 13.6508 20.7671C13.6396 22.2682 14.6513 23.4927 15.9107 23.5021Z" fill="#26A69A"/>
<path d="M15.9462 18.7382C16.0345 18.8371 16.1127 19.018 15.9415 19.3679C15.7703 19.7178 14.8585 20.1862 14.6915 20.281C14.5246 20.378 14.4149 20.3327 14.3637 20.2926C14.1193 20.0941 14.2163 19.65 14.3775 19.3796C14.7237 18.7946 15.4516 18.1936 15.9462 18.7382Z" fill="#69F0AE"/>
<path d="M15.7548 21.7966C15.4964 21.9188 14.6484 22.2894 14.9237 22.7386C15.0856 23.0043 15.4242 23.1192 15.7354 23.1356C16.0467 23.152 16.3541 23.056 16.6314 22.9152C17.9474 22.2461 18.0661 20.4631 17.812 20.3254C17.5508 20.1829 17.3702 20.5445 17.2333 20.698C16.8169 21.1573 16.3147 21.5305 15.7548 21.7966Z" fill="#00796B"/>
<path d="M28.5072 18.6542C28.8876 16.6366 27.5335 16.1208 27.5335 16.1208C27.5335 16.1208 26.6592 15.955 26.2302 18.2251C25.8011 20.4928 26.6755 20.6586 26.6755 20.6586C26.6755 20.6586 28.1246 20.6717 28.5072 18.6542Z" fill="#26A69A"/>
<path d="M27.9171 16.8143C28.2323 17.2427 27.8507 17.8697 27.2366 18.2841C27.0554 18.4069 26.8169 18.3583 26.7826 18.255C26.6865 17.9593 26.7311 17.6248 26.8643 17.3425C27.2593 16.4957 27.7572 16.5977 27.9171 16.8143Z" fill="#69F0AE"/>
<path d="M3.1464 18.5253C2.79395 16.5046 4.1579 16.0068 4.1579 16.0068C4.1579 16.0068 5.03463 15.8541 5.42965 18.1303C5.82469 20.4042 4.94795 20.5569 4.94795 20.5569C4.94795 20.5569 3.49649 20.5484 3.1464 18.5253Z" fill="#26A69A"/>
<path d="M4.56956 16.6958C4.88151 16.9323 4.75046 17.238 4.51242 17.4492C4.24136 17.693 4.03334 17.9607 3.80183 18.2376C3.7664 18.2795 3.72625 18.326 3.66998 18.3373C3.56212 18.3599 3.47632 18.2492 3.44199 18.1436C3.34354 17.8479 3.36486 17.5015 3.51671 17.2311C3.94858 16.4594 4.44851 16.6036 4.56956 16.6958Z" fill="#69F0AE"/>
<path d="M24.2555 20.5796C24.0871 21.4984 23.3449 22.132 22.5944 21.9953C21.8439 21.8585 21.7467 21.0735 21.9152 20.1547C22.0836 19.2359 22.4517 18.5339 23.1999 18.6707C23.9503 18.8074 24.4239 19.6631 24.2555 20.5796Z" fill="#F44336"/>
<path d="M7.97124 20.4578C8.12589 21.379 8.85853 22.0236 9.61099 21.8982C10.3634 21.7727 10.4723 20.9892 10.3177 20.068C10.163 19.1467 9.80542 18.4394 9.05531 18.5649C8.3052 18.6904 7.81891 19.5389 7.97124 20.4578Z" fill="#F44336"/>
<path d="M9.06437 19.8526C8.89204 20.0432 8.47244 20.4264 8.32717 20.1303C8.12885 19.7262 8.41199 19.1196 8.73187 18.9206C9.05176 18.7217 9.31042 18.8828 9.35356 19.0634C9.40568 19.2932 9.21783 19.6805 9.06437 19.8526Z" fill="#FFA8A4"/>
<path d="M22.3804 20.5398C22.1489 20.503 22.1291 19.7045 22.7565 19.0817C23.0561 18.7843 23.4795 19.1433 23.3682 19.6225C23.2618 20.0782 22.8036 20.6085 22.3804 20.5398Z" fill="#FFA8A4"/>
<path d="M26.3805 23.1825C24.9729 23.8743 21.7424 25.7207 15.8031 25.6763C9.86393 25.6319 6.66134 23.7373 5.26431 23.0245C5.26431 23.0245 4.75897 23.29 4.75687 23.5709L4.74074 25.727C4.73859 26.0149 4.88878 26.2806 5.13582 26.43C6.2266 27.0843 9.5535 28.6356 15.783 28.6822C22.0125 28.7288 25.3622 27.2274 26.4627 26.5895C26.585 26.5186 26.6868 26.417 26.7579 26.2948C26.829 26.1726 26.867 26.0339 26.8682 25.8925L26.8844 23.7364C26.8818 23.4555 26.3805 23.1825 26.3805 23.1825Z" fill="#FFCA28"/>
<path d="M10.0764 26.0174C10.7309 26.1511 10.9295 26.2088 10.8823 26.5736C10.7856 27.2916 9.29563 27.1096 8.41479 26.8712C6.59471 26.3777 6.22861 25.8692 6.23199 25.4174C6.23509 25.0031 6.55384 24.9563 7.04416 25.1332C7.6302 25.3459 8.5359 25.7039 10.0764 26.0174Z" fill="#FFF59D"/>
<path d="M26.3769 23.6554C26.3769 23.6554 22.4814 25.8223 15.8024 25.7723C9.12342 25.7223 5.26074 23.4974 5.26074 23.4974" stroke="#F19534" stroke-width="2" stroke-miterlimit="10" stroke-linecap="round"/>
<path d="M7.22705 11.6517C8.47913 10.7715 9.1606 9.18222 9.23811 6.64498C9.2445 6.41559 9.31056 6.34819 9.43474 6.33507C9.63389 6.31549 9.66531 6.49599 9.66201 6.62473C9.58533 9.36333 9.22372 11.072 7.83529 12.0262C7.76705 12.0725 7.28025 12.3639 7.07576 12.1586C6.83174 11.918 7.14703 11.7073 7.22705 11.6517Z" fill="#FFCA28"/>
<path d="M8.42665 3.6937C8.39002 3.26967 8.49405 2.50723 9.60864 2.16908C9.93479 2.07085 10.1349 2.23154 10.1715 2.3559C10.2628 2.66561 9.99032 2.78532 9.86595 2.82419C9.0094 3.09404 8.96408 3.51979 8.78647 3.79004C8.60886 4.06029 8.43973 3.82256 8.42665 3.6937Z" fill="#FFCA28"/>
<path d="M19.2289 11.1797C20.3625 10.1885 21.1176 9.07737 21.6282 6.53868C21.6744 6.31427 21.7404 6.2539 21.8621 6.25949C22.0611 6.26566 22.069 6.45067 22.047 6.57693C21.61 9.28473 21.2086 10.0543 19.8089 11.582C19.6507 11.7541 19.268 11.9081 19.0539 11.7262C18.8608 11.5632 19.0875 11.305 19.2289 11.1797Z" fill="#FFCA28"/>
<path d="M20.9418 3.80845C20.9052 3.38442 21.0092 2.62198 22.1238 2.28382C22.4499 2.18559 22.6501 2.34629 22.6866 2.47064C22.7779 2.78036 22.5055 2.90006 22.3811 2.93893C21.5245 3.20878 21.4792 3.63454 21.3016 3.90478C21.1263 4.17505 20.9549 3.93731 20.9418 3.80845Z" fill="#FFCA28"/>
<path d="M8.26986 16.8218C5.5588 15.5677 4.78224 12.3428 4.36663 10.942C4.31183 10.7567 4.34123 10.5813 4.5266 10.5265C4.71196 10.4717 4.8211 10.5919 4.87824 10.7773C5.17967 11.7933 6.3553 15.1874 8.82726 16.1681C9.007 16.2397 9.28664 16.4127 9.13229 16.7042C9.03021 16.8931 8.70614 17.0241 8.26986 16.8218Z" fill="#FFF59D"/>
<path d="M3.92537 5.78816C3.79631 5.51562 3.74439 5.2577 3.0326 4.95505C2.8529 4.87878 2.73475 4.71168 2.78531 4.52476C2.83587 4.33785 3.02421 4.19879 3.29542 4.24764C4.17685 4.40641 4.36211 5.30446 4.39724 5.6161C4.43011 5.91601 4.05678 6.06072 3.92537 5.78816Z" fill="#FFF59D"/>
<path d="M23.5522 16.9361C26.2817 15.7228 27.1064 12.5098 27.543 11.1154C27.6005 10.9309 27.5737 10.7551 27.3892 10.6975C27.2047 10.64 27.0938 10.7585 27.0339 10.943C26.7173 11.9544 25.491 15.3306 23.0046 16.2742C22.8239 16.3431 22.5417 16.5119 22.6916 16.8056C22.7909 16.996 23.1129 17.1319 23.5522 16.9361Z" fill="#FFF59D"/>
<path d="M28.0614 5.96874C28.1945 5.69816 28.2503 5.44105 28.9665 5.14908C29.1474 5.07552 29.268 4.9102 29.2202 4.72254C29.1725 4.53489 28.9862 4.39303 28.7143 4.43782C27.8306 4.58339 27.632 5.47857 27.5922 5.78964C27.5548 6.08903 27.9283 6.23932 28.0614 5.96874Z" fill="#FFF59D"/>
<path d="M14.8493 7.02173C14.9943 6.73017 15.2478 6.33172 16.066 6.16928C16.3802 6.10608 16.4726 5.97098 16.446 5.76476C16.393 5.33593 15.859 5.36237 15.5706 5.4281C14.6091 5.64566 14.3897 6.49621 14.3473 6.83302C14.3051 7.15344 14.7066 7.31331 14.8493 7.02173Z" fill="#FFF59D"/>
</g>
<defs>
<clipPath id="clip0_1_288">
<rect width="29.9661" height="29.9661" fill="white" transform="translate(1) rotate(0.428584)"/>
</clipPath>
</defs>
</svg>
